{
  "asset": { "version": "2.0", "generator": "mireye-expedition-parametric" },
  "scene": 0,
  "scenes": [{ "nodes": [0] }],
  "nodes": [{
    "name": "warehouse_40x80x10m",
    "mesh": 0
  }],
  "meshes": [{
    "name": "warehouse_box",
    "primitives": [{
      "attributes": { "POSITION": 0, "NORMAL": 1 },
      "indices": 2,
      "material": 0
    }]
  }],
  "materials": [{
    "name": "concept_orange",
    "pbrMetallicRoughness": {
      "baseColorFactor": [1.0, 0.36, 0.08, 1.0],
      "metallicFactor": 0.05,
      "roughnessFactor": 0.72
    },
    "emissiveFactor": [0.18, 0.05, 0.0],
    "alphaMode": "OPAQUE",
    "doubleSided": true
  }],
  "buffers": [{
    "uri": "data:application/octet-stream;base64,",
    "byteLength": 648
  }],
  "bufferViews": [
    { "buffer": 0, "byteOffset": 0, "byteLength": 288, "target": 34962 },
    { "buffer": 0, "byteOffset": 288, "byteLength": 288, "target": 34962 },
    { "buffer": 0, "byteOffset": 576, "byteLength": 72, "target": 34963 }
  ],
  "accessors": [
    {
      "bufferView": 0,
      "componentType": 5126,
      "count": 24,
      "type": "VEC3",
      "max": [20, 10, 40],
      "min": [-20, 0, -40]
    },
    {
      "bufferView": 1,
      "componentType": 5126,
      "count": 24,
      "type": "VEC3"
    },
    {
      "bufferView": 2,
      "componentType": 5123,
      "count": 36,
      "type": "SCALAR",
      "max": [23],
      "min": [0]
    }
  ],
  "extras": {
    "rights": "original parametric box, CC0",
    "footprint_m": { "length": 80, "width": 40, "height": 10 },
    "assumptions": ["no setbacks from ordinance", "dock/yard not modeled", "not permit-ready"]
  }
}
